<?xml version="1.0" encoding="utf-8"?>
<!-- Generator: Adobe Illustrator 23.0.1, SVG Export Plug-In . SVG Version: 6.00 Build 0)  -->
<svg version="1.1" id="Layer_1" xmlns="http://www.w3.org/2000/svg" xmlns:xlink="http://www.w3.org/1999/xlink" x="0px" y="0px"
	 viewBox="0 0 197.3 83.3" style="enable-background:new 0 0 197.3 83.3;" xml:space="preserve">
<style type="text/css">
	.st0{fill:url(#SVGID_1_);}
	.st1{fill:url(#SVGID_2_);}
	.st2{fill:url(#SVGID_3_);}
</style>
<g>
	<linearGradient id="SVGID_1_" gradientUnits="userSpaceOnUse" x1="98.6489" y1="5.8525" x2="98.6489" y2="81.3316">
		<stop  offset="0" style="stop-color:#006EB9"/>
		<stop  offset="1" style="stop-color:#2E3192"/>
	</linearGradient>
	<path class="st0" d="M16.3,57c1.3,0,2.5,0.1,3.6,0.5c1.1,0.3,2,0.7,2.6,1.2c0.7,0.5,1,0.8,1.1,1c0.1,0.2,0.2,1.3,0.2,3.4h1.7
		c0.1-1.7,0.2-3.1,0.4-4.2c0.1-0.7,0.3-1.4,0.5-2.1l-0.1-0.3c-1.6-0.6-3.3-1-5-1.3c-1.7-0.3-3.3-0.5-5-0.5c-5.1,0-9.1,1.3-12,3.9
		C1.4,61.3,0,64.6,0,68.7c0,2.8,0.6,5.4,1.9,7.6c1.3,2.2,3.1,3.9,5.5,5.1c2.4,1.2,5.3,1.8,8.7,1.8c1.8,0,3.5-0.1,4.9-0.5
		c1.4-0.3,2.9-0.9,4.4-1.7c0.3-0.6,0.6-1.3,0.9-2l-0.5-0.5c-1.5,0.8-2.8,1.2-4,1.5c-1.2,0.3-2.5,0.4-3.9,0.4c-3.6,0-6.4-1.1-8.5-3.2
		c-2.3-2.4-3.4-5.4-3.4-9.2c0-3.5,0.9-6.2,2.8-8.1C10.7,58,13.2,57,16.3,57z M50,59c-1.9-1-4.4-1.5-7.4-1.5c-3.1,0-5.7,0.5-7.7,1.6
		c-2,1-3.5,2.5-4.7,4.4c-1.1,1.9-1.7,4.3-1.7,7c0,3.9,1.2,7,3.5,9.3c2.3,2.3,5.7,3.4,10,3.4c2.9,0,5.4-0.6,7.4-1.7
		c2-1.1,3.6-2.7,4.8-4.7c1.1-2,1.7-4.4,1.7-7.2c0-2.5-0.5-4.7-1.6-6.5C53.3,61.4,51.8,60,50,59z M48.3,78.6
		c-1.4,1.8-3.3,2.7-5.7,2.7c-1.9,0-3.4-0.4-4.7-1.2c-1.2-0.8-2.1-2-2.9-3.8c-0.8-1.8-1.2-3.9-1.2-6.5c0-3.5,0.7-6.1,2.1-7.9
		c1.4-1.7,3.4-2.5,5.9-2.5c2.7,0,4.7,0.8,6.1,2.5c1.6,2,2.4,4.9,2.4,8.7C50.5,74.2,49.8,76.9,48.3,78.6z M77.5,57.9v1.5
		c1.4,0.1,2.3,0.2,2.5,0.2c0.2,0,0.3,0.2,0.4,0.3c0.1,0.2,0.2,1,0.3,2.1c0,2,0,4.3,0,7v7c-1.7-1.8-3.7-4-6-6.8
		c-3.5-4.1-6.6-7.9-9.3-11.4c-1.3,0.1-2.4,0.1-3.4,0.1c-0.9,0-2.3,0-4.1-0.1v1.5c1.5,0.1,2.4,0.3,2.6,0.4c0.2,0.1,0.3,0.2,0.4,0.4
		c0.1,0.3,0.2,1.5,0.2,3.5l0,7.6c0,1.4,0,3.6-0.1,6.5c0,1.7-0.1,2.7-0.2,3c-0.1,0.2-0.2,0.3-0.4,0.4c-0.2,0.2-1.1,0.3-2.5,0.3v1.5
		c2.2-0.1,3.7-0.1,4.4-0.1c0.8,0,2.2,0.1,4.1,0.1v-1.5c-1.5-0.1-2.4-0.2-2.6-0.4c-0.2-0.1-0.2-0.1-0.3-0.3c-0.1-0.3-0.2-1.4-0.3-3.4
		c0-2.7-0.1-5-0.1-6.9v-6.9c1.3,1.8,3.1,3.9,5.3,6.6c4.3,5.1,8,9.3,11.1,12.7c0.6,0.1,1.5,0.3,2.9,0.5l0.2-0.2
		c-0.1-1.9-0.1-3.9-0.1-5.8l0-7.2l0-7.1c0-1.5,0.1-2.5,0.2-2.7c0-0.2,0.1-0.3,0.2-0.4c0.1-0.1,0.2-0.2,0.4-0.2
		c0.3-0.1,1.1-0.2,2.4-0.3v-1.5C84.5,57.9,83,58,81.3,58C80,58,78.8,57.9,77.5,57.9z M102.7,59.6c1.2,0,2.3,0.2,3.3,0.4
		c1,0.3,1.7,0.7,2.3,1.1c0.6,0.4,0.9,0.7,1,0.9c0.1,0.2,0.1,1.2,0.2,3.1h1.5c0.1-1.5,0.2-2.7,0.4-3.8c0.1-0.6,0.2-1.2,0.4-1.8
		l-0.1-0.3c-1.5-0.6-2.9-1-4.5-1.2c-1.5-0.3-3-0.4-4.5-0.4c-4.6,0-8.2,1.2-10.8,3.5c-2.6,2.4-3.9,5.4-3.9,9.1c0,2.5,0.6,4.8,1.7,6.8
		c1.1,1.9,2.8,3.5,4.9,4.6c2.2,1.1,4.8,1.6,7.9,1.6c1.6,0,3.1-0.1,4.4-0.5c1.3-0.3,2.6-0.8,4-1.6c0.2-0.6,0.5-1.2,0.8-1.8l-0.4-0.4
		c-1.3,0.7-2.5,1.1-3.6,1.4c-1.1,0.3-2.3,0.4-3.5,0.4c-3.3,0-5.8-1-7.6-2.9c-2-2.1-3-4.9-3-8.2c0-3.1,0.9-5.6,2.5-7.3
		C97.6,60.5,99.9,59.6,102.7,59.6z M135.3,59c-1.9-1-4.4-1.5-7.4-1.5c-3.1,0-5.7,0.5-7.7,1.6c-2,1-3.5,2.5-4.7,4.4
		c-1.1,1.9-1.7,4.3-1.7,7c0,3.9,1.2,7,3.5,9.3c2.3,2.3,5.6,3.4,10,3.4c2.9,0,5.3-0.6,7.4-1.7c2.1-1.1,3.7-2.7,4.8-4.7
		c1.1-2,1.7-4.4,1.7-7.2c0-2.5-0.5-4.7-1.6-6.5C138.7,61.4,137.2,60,135.3,59z M133.7,78.6c-1.4,1.8-3.3,2.7-5.7,2.7
		c-1.9,0-3.5-0.4-4.7-1.2c-1.2-0.8-2.2-2-2.9-3.8c-0.8-1.8-1.2-3.9-1.2-6.5c0-3.5,0.7-6.1,2.1-7.9c1.4-1.7,3.4-2.5,5.9-2.5
		c2.7,0,4.8,0.8,6.1,2.5c1.6,2,2.4,4.9,2.4,8.7C135.8,74.2,135.1,76.9,133.7,78.6z M165.1,79.8l-2.9-4.4l-3.7-5.7
		c2-0.8,3.4-1.8,4.2-2.9c0.8-1.1,1.2-2.3,1.2-3.7c0-1.1-0.2-2.1-0.8-2.9c-0.5-0.8-1.2-1.4-2.1-1.8c-0.9-0.4-2.3-0.6-4.2-0.6L148,58
		c-0.7,0-2.3,0-4.7-0.1v1.5c1.3,0.1,2,0.3,2.2,0.4c0.2,0.1,0.3,0.2,0.3,0.4c0.2,0.5,0.3,1.9,0.3,4.2c0,3,0.1,5.6,0.1,7.5
		c0,1.4,0,3.5-0.1,6c0,1.6-0.1,2.6-0.2,2.9c-0.1,0.2-0.2,0.3-0.3,0.3c-0.2,0.1-1,0.2-2.3,0.3v1.5c2-0.1,3.8-0.1,5.6-0.1
		c1.6,0,3.5,0.1,5.6,0.1v-1.5c-1.3-0.1-2.1-0.2-2.4-0.3c-0.2-0.1-0.3-0.2-0.4-0.4c-0.1-0.2-0.2-1.2-0.3-3c-0.1-2.3-0.2-4.3-0.2-5.8
		l0.1-6.6l0.1-5.3c0.9-0.1,1.7-0.1,2.2-0.1c1.7,0,2.9,0.4,3.8,1.2c0.8,0.8,1.3,1.9,1.3,3.4c0,1.6-0.5,2.9-1.6,3.8
		c-1.1,0.9-2.1,1.4-3.2,1.4c-0.2,0-0.6,0-1-0.1c-0.1,0.2-0.1,0.4-0.2,0.6l3.6,5.5c2.1,3.1,3.6,5.5,4.6,7.2c0.9,0,2.8-0.1,5.8-0.1
		l1,0v-1.3c-0.6,0-1.1-0.1-1.4-0.2C166,80.9,165.6,80.5,165.1,79.8z M195.8,62.8c-1-1.7-2.3-2.9-3.9-3.7c-1.6-0.8-4.1-1.2-7.3-1.2
		l-8.8,0.1c-2.3,0-4.4,0-6.1-0.1v1.5c1.5,0.2,2.4,0.3,2.6,0.4c0.1,0.1,0.2,0.1,0.2,0.3c0.1,0.2,0.2,1.2,0.2,2.9
		c0.1,1.6,0.1,3.7,0.1,6.2c0,5.7-0.1,9.6-0.3,11.7c-0.3,0.2-0.9,0.6-1.8,1.1v0.9c2.2-0.1,3.8-0.1,4.8-0.1l6.8,0.1
		c2.5,0,4.8-0.4,7-1.4c2.2-0.9,4.1-2.5,5.6-4.7c1.5-2.2,2.3-4.8,2.3-7.9C197.3,66.4,196.8,64.4,195.8,62.8z M190.6,76
		c-0.9,1.7-2,2.9-3.4,3.7c-1.4,0.7-3.4,1.1-6.1,1.1c-1,0-2-0.1-3.1-0.2c-0.1-1.7-0.1-4.9-0.1-9.5l0.1-11c1.8-0.1,3.1-0.2,3.8-0.2
		c3.4,0,5.9,0.8,7.4,2.3c1.7,1.7,2.6,4.2,2.6,7.5C191.9,72.2,191.4,74.3,190.6,76z"/>
	<g>
		<linearGradient id="SVGID_2_" gradientUnits="userSpaceOnUse" x1="77.6016" y1="0.3668" x2="77.6016" y2="84.767">
			<stop  offset="0" style="stop-color:#006EB9"/>
			<stop  offset="1" style="stop-color:#2E3192"/>
		</linearGradient>
		<path class="st1" d="M80.2,26.1c0-6.6,5.4-12,12-12c2.4,0,4.6,0.7,6.4,1.9l-16-16L56.6,26.1l26.1,26.1l16-16
			c-1.9,1.2-4.1,1.9-6.4,1.9C85.6,38.2,80.2,32.8,80.2,26.1z"/>
		<linearGradient id="SVGID_3_" gradientUnits="userSpaceOnUse" x1="119.6958" y1="0.3668" x2="119.6958" y2="84.767">
			<stop  offset="0" style="stop-color:#006EB9"/>
			<stop  offset="1" style="stop-color:#2E3192"/>
		</linearGradient>
		<path class="st2" d="M122.3,26.1c0-6.6,5.4-12,12-12c2.4,0,4.6,0.7,6.4,1.9l-16-16L98.6,26.1l26.1,26.1l16-16
			c-1.9,1.2-4.1,1.9-6.4,1.9C127.7,38.2,122.3,32.8,122.3,26.1z"/>
	</g>
</g>
</svg>
