<svg xmlns="http://www.w3.org/2000/svg" width="24" height="16" viewBox="0 0 24 16">
  <g id="Group_1872" data-name="Group 1872" transform="translate(-1235 -971)">
    <g id="Group_1836" data-name="Group 1836" transform="translate(1123.285 -1018.921)" opacity="0.5">
      <g id="_633964" data-name="633964" transform="translate(111.715 1989.921)">
        <rect id="Rectangle_303" data-name="Rectangle 303" width="24" height="15.802" transform="translate(0 0.063)" fill="#707070" opacity="0"/>
        <g id="Group_268" data-name="Group 268">
          <path id="Path_71" data-name="Path 71" d="M23.962,82.508a.448.448,0,0,0-.109-.153l-8-7.529a.523.523,0,0,0-.707,0,.452.452,0,0,0,0,.665l7.146,6.726H.5a.471.471,0,1,0,0,.941H22.293l-7.146,6.726a.452.452,0,0,0,0,.665.525.525,0,0,0,.708,0l8-7.529a.5.5,0,0,0,.108-.153A.442.442,0,0,0,23.962,82.508Z" transform="translate(0 -74.688)" fill="#707070"/>
        </g>
      </g>
    </g>
  </g>
</svg>
