<svg id="Component_14_1" data-name="Component 14 – 1" xmlns="http://www.w3.org/2000/svg" width="118.426" height="50" viewBox="0 0 118.426 50">
  <path id="Path_1395" data-name="Path 1395" d="M212.806,790.24a7.86,7.86,0,0,1,2.161.272,4.1,4.1,0,0,1,1.57.732,2.119,2.119,0,0,1,.65.622,13.067,13.067,0,0,1,.131,2.053h1.034a23.161,23.161,0,0,1,.237-2.546,9.1,9.1,0,0,1,.28-1.243l-.073-.185a18.889,18.889,0,0,0-2.978-.8,17.338,17.338,0,0,0-3.013-.277,10.4,10.4,0,0,0-7.2,2.365,7.692,7.692,0,0,0-2.6,6.011,8.953,8.953,0,0,0,1.148,4.532,7.878,7.878,0,0,0,3.3,3.063,11.4,11.4,0,0,0,5.251,1.089,12.067,12.067,0,0,0,2.917-.3,10.6,10.6,0,0,0,2.641-1.033c.171-.39.338-.8.536-1.194l-.289-.281a11.537,11.537,0,0,1-2.422.927,10.664,10.664,0,0,1-2.343.248,6.707,6.707,0,0,1-5.088-1.921,7.6,7.6,0,0,1-2.016-5.5A6.763,6.763,0,0,1,208.306,792,5.922,5.922,0,0,1,212.806,790.24Zm20.181,1.186a9.689,9.689,0,0,0-4.45-.892,10.061,10.061,0,0,0-4.6.931,6.844,6.844,0,0,0-2.819,2.663,8.36,8.36,0,0,0-1.009,4.213,7.408,7.408,0,0,0,2.085,5.569,8.318,8.318,0,0,0,6.014,2.014,9.345,9.345,0,0,0,4.466-1,7.212,7.212,0,0,0,2.872-2.8,8.719,8.719,0,0,0,1.019-4.345,7.5,7.5,0,0,0-.936-3.879A6.43,6.43,0,0,0,232.986,791.426ZM232.02,803.2a4.122,4.122,0,0,1-3.4,1.592,4.928,4.928,0,0,1-2.794-.709,5.178,5.178,0,0,1-1.766-2.291,9.691,9.691,0,0,1-.693-3.881,7.38,7.38,0,0,1,1.272-4.715,5.107,5.107,0,0,1,7.224-.046,8.21,8.21,0,0,1,1.454,5.23A7.607,7.607,0,0,1,232.02,803.2Zm17.5-12.475v.879c.869.064,1.368.112,1.486.145a.326.326,0,0,1,.235.173,4.176,4.176,0,0,1,.18,1.274c.026,1.174.026,2.562.026,4.176v4.231c-1.005-1.068-2.2-2.423-3.573-4.056-2.083-2.442-3.956-4.726-5.585-6.822-.75.055-1.433.076-2.013.076-.535,0-1.37-.022-2.477-.076v.879a6.142,6.142,0,0,1,1.586.237.559.559,0,0,1,.229.229,10.676,10.676,0,0,1,.1,2.079l.026,4.547c0,.863-.026,2.17-.057,3.873a8.489,8.489,0,0,1-.136,1.811.589.589,0,0,1-.224.262,4.627,4.627,0,0,1-1.525.175v.875c1.341-.041,2.226-.073,2.633-.073.485,0,1.314.031,2.449.073v-.874a5.256,5.256,0,0,1-1.534-.215.268.268,0,0,1-.172-.174,9.138,9.138,0,0,1-.151-2.042c-.017-1.6-.037-2.977-.037-4.121V794.1c.8,1.07,1.884,2.37,3.2,3.948,2.592,3.061,4.823,5.608,6.666,7.637.348.056.923.161,1.75.318l.139-.138c-.044-1.168-.067-2.317-.067-3.472l.023-4.3.012-4.278a10.725,10.725,0,0,1,.107-1.643.549.549,0,0,1,.13-.262.773.773,0,0,1,.211-.136,8.7,8.7,0,0,1,1.433-.164v-.879c-.839.055-1.766.076-2.8.076C251.033,790.8,250.274,790.781,249.517,790.727Zm15.12,1.024A7.835,7.835,0,0,1,266.6,792a4.73,4.73,0,0,1,1.409.651,2.162,2.162,0,0,1,.58.548,14.513,14.513,0,0,1,.125,1.845h.911a20.468,20.468,0,0,1,.218-2.264,5.258,5.258,0,0,1,.265-1.1l-.073-.157a15.452,15.452,0,0,0-5.393-.987,9.312,9.312,0,0,0-6.476,2.116,7.031,7.031,0,0,0-2.348,5.457,8.01,8.01,0,0,0,1.044,4.088,7.09,7.09,0,0,0,2.958,2.748,10.407,10.407,0,0,0,4.721.98,11.447,11.447,0,0,0,2.622-.271,9.321,9.321,0,0,0,2.378-.945,8.485,8.485,0,0,1,.494-1.092l-.257-.247a9.817,9.817,0,0,1-2.182.837,8.67,8.67,0,0,1-2.113.253,6.012,6.012,0,0,1-4.579-1.764,6.835,6.835,0,0,1-1.827-4.949,6.224,6.224,0,0,1,1.5-4.411A5.386,5.386,0,0,1,264.637,791.751Zm19.561-.325a9.569,9.569,0,0,0-4.438-.892,10.157,10.157,0,0,0-4.607.931,6.782,6.782,0,0,0-2.8,2.663,8.274,8.274,0,0,0-1,4.213,7.374,7.374,0,0,0,2.085,5.569,8.231,8.231,0,0,0,6,2.014,9.275,9.275,0,0,0,4.457-1,7.118,7.118,0,0,0,2.87-2.8,8.759,8.759,0,0,0,1.032-4.345,7.54,7.54,0,0,0-.941-3.879A6.318,6.318,0,0,0,284.2,791.426Zm-.945,11.776a4.11,4.11,0,0,1-3.4,1.592,4.889,4.889,0,0,1-2.8-.709,5.038,5.038,0,0,1-1.763-2.291,9.807,9.807,0,0,1-.706-3.881,7.3,7.3,0,0,1,1.283-4.715,5.081,5.081,0,0,1,7.2-.046,8.21,8.21,0,0,1,1.459,5.23A7.6,7.6,0,0,1,283.253,803.2Zm18.822.708-1.728-2.631-2.21-3.441a5.666,5.666,0,0,0,2.522-1.717,3.737,3.737,0,0,0,.711-2.237,3.079,3.079,0,0,0-.463-1.732,2.639,2.639,0,0,0-1.245-1.082,6.661,6.661,0,0,0-2.507-.344l-5.309.076c-.423,0-1.37-.022-2.819-.076v.879a4.128,4.128,0,0,1,1.315.237c.092.049.171.106.173.215a10.048,10.048,0,0,1,.2,2.5c.029,1.825.048,3.339.048,4.519,0,.864-.019,2.084-.059,3.616a6.864,6.864,0,0,1-.14,1.721.367.367,0,0,1-.156.208,5.886,5.886,0,0,1-1.378.2v.874c1.183-.041,2.3-.073,3.345-.073.98,0,2.1.031,3.356.073v-.874a5.127,5.127,0,0,1-1.438-.19.4.4,0,0,1-.218-.222,8.964,8.964,0,0,1-.182-1.772c-.055-1.408-.091-2.573-.091-3.484l.076-3.972.073-3.166c.535-.05.99-.073,1.3-.073a3.284,3.284,0,0,1,2.277.708,2.662,2.662,0,0,1,.753,2.013,2.761,2.761,0,0,1-.958,2.263,2.948,2.948,0,0,1-1.945.818c-.137,0-.347-.029-.624-.04a2.21,2.21,0,0,1-.149.385l2.175,3.31c1.233,1.877,2.144,3.308,2.758,4.292.523-.03,1.684-.039,3.487-.06l.63-.011v-.8a1.9,1.9,0,0,1-.815-.131A3.606,3.606,0,0,1,302.075,803.91Zm18.469-10.233a5.456,5.456,0,0,0-2.355-2.224,10.265,10.265,0,0,0-4.357-.726l-5.27.076c-1.374,0-2.613-.022-3.685-.076v.879a9.047,9.047,0,0,1,1.553.252.34.34,0,0,1,.145.157,7.47,7.47,0,0,1,.13,1.719c.038.989.053,2.241.053,3.733,0,3.429-.053,5.767-.15,7.028-.192.136-.555.36-1.059.649v.55c1.294-.041,2.284-.073,2.911-.073l4.062.07a10.366,10.366,0,0,0,4.205-.837,7.763,7.763,0,0,0,3.341-2.824,8.226,8.226,0,0,0,1.362-4.74A6.974,6.974,0,0,0,320.544,793.677Zm-3.15,7.948a5.029,5.029,0,0,1-2.04,2.223,7.936,7.936,0,0,1-3.648.673,11.465,11.465,0,0,1-1.834-.148c-.05-1.025-.077-2.917-.077-5.708l.077-6.608c1.1-.086,1.854-.116,2.3-.116,2.063,0,3.539.465,4.45,1.379a6.048,6.048,0,0,1,1.565,4.517A8.382,8.382,0,0,1,317.394,801.625Z" transform="translate(-203.003 -756)" fill="#fff"/>
  <g id="Group_1598" data-name="Group 1598" transform="translate(33.947)">
    <path id="Path_1396" data-name="Path 1396" d="M273.751,749.8a7.219,7.219,0,0,1,11.073-6.1l-9.58-9.581L259.558,749.8l15.685,15.686,9.58-9.579a7.222,7.222,0,0,1-11.073-6.107Z" transform="translate(-259.558 -734.113)" fill="#fff"/>
    <path id="Path_1397" data-name="Path 1397" d="M315.848,749.8a7.217,7.217,0,0,1,11.07-6.1l-9.578-9.581L301.651,749.8l15.689,15.686,9.578-9.579a7.22,7.22,0,0,1-11.07-6.107Z" transform="translate(-276.385 -734.113)" fill="#fff"/>
  </g>
</svg>
