<svg xmlns="http://www.w3.org/2000/svg" xmlns:xlink="http://www.w3.org/1999/xlink" width="578" height="382" viewBox="0 0 578 382">
    <defs>
        <path id="prefix__a" d="M0.294 0.64L80.47 0.64 80.47 80.871 0.294 80.871z"/>
    </defs>
    <g fill="none" fill-rule="evenodd">
        <path fill="#29A8FF" fill-opacity=".037" d="M70.338 326.264c-51.57-41.952-63.906-96.591-37.007-163.919 40.348-100.99 152.123-61.843 223.253-125.843 71.129-64 203.828-43.35 223.312 58.089 19.485 101.438 83.32 235.034-39.281 261.095-81.734 17.375-202.64 19.744-362.719 7.108l-7.558-36.53z" transform="translate(1)"/>
        <g transform="translate(1) translate(79.5 41)">
            <path fill="#AAC6CE" d="M87 316L95 316 95 237 87 237z"/>
            <path fill="#85B0BA" d="M87 248L95 248 95 237 87 237z"/>
            <path fill="#AAC6CE" d="M127.503 315.863h-69.19c-2.638 0-4.78 2.142-4.78 4.785v2.464h78.754v-2.464c0-2.643-2.142-4.785-4.784-4.785M72.048 236.942h57.19c-20.81-7.479-12.76-77.927-8.914-104.634.776-5.38-3.402-10.193-8.835-10.193l-38.093-.002c-7.797 0-14.403 5.75-15.468 13.48-3.341 24.263-8.61 74.577 1.825 94.056 2.419 4.52 7.172 7.293 12.295 7.293"/>
            <mask id="prefix__b" fill="#fff">
                <use xlink:href="#prefix__a"/>
            </mask>
            <path fill="#FF7E9E" d="M80.47 40.754C80.47 18.6 62.524.639 40.382.639 18.241.639.294 18.599.294 40.754c0 22.156 17.947 40.117 40.088 40.117 22.142 0 40.088-17.96 40.088-40.117" mask="url(#prefix__b)"/>
            <path fill="#FFEEF2" d="M73.114 40.754C73.114 22.664 58.461 8 40.384 8c-18.08 0-32.733 14.664-32.733 32.753s14.654 32.754 32.733 32.754c18.077 0 32.73-14.665 32.73-32.754"/>
            <path fill="#FF7E9E" d="M31.086 51.929c-.521 0-1.042-.2-1.44-.597-.796-.797-.796-2.085 0-2.882l8.533-8.54V17.466c0-1.124.912-2.037 2.036-2.037 1.126 0 2.037.913 2.037 2.037v23.288c0 .54-.214 1.06-.597 1.44l-9.129 9.138c-.397.397-.918.597-1.44.597"/>
            <path fill="#1E394C" d="M44.647 40.16c0-2.59-2.098-4.691-4.69-4.691-2.588 0-4.688 2.1-4.688 4.69 0 2.59 2.1 4.694 4.688 4.694 2.592 0 4.69-2.103 4.69-4.693"/>
            <path fill="#8AEDE5" d="M268.643 78.089h-68.416c-3.506 0-6.351 2.845-6.351 6.356v30.843c0 3.51 2.845 6.357 6.351 6.357h4.78v7.459c0 1.033 1.226 1.58 1.995.886l9.247-8.345h52.394c3.507 0 6.35-2.846 6.35-6.357V84.445c0-3.511-2.843-6.356-6.35-6.356"/>
            <path fill="#34648C" d="M220.6 100.334c0 1.546-1.253 2.8-2.798 2.8-1.546 0-2.796-1.254-2.796-2.8 0-1.545 1.25-2.8 2.796-2.8 1.545 0 2.797 1.255 2.797 2.8M237.805 100.334c0 1.546-1.25 2.8-2.796 2.8-1.545 0-2.798-1.254-2.798-2.8 0-1.545 1.253-2.8 2.798-2.8 1.546 0 2.796 1.255 2.796 2.8M253.865 100.334c0 1.546-1.252 2.8-2.798 2.8-1.543 0-2.796-1.254-2.796-2.8 0-1.545 1.253-2.8 2.796-2.8 1.546 0 2.798 1.255 2.798 2.8"/>
            <path fill="#67B8EF" d="M44.629 160.957c0-7.55-5.327-15.113-11.9-15.113-6.572 0-11.901 7.564-11.901 15.113 0 7.55 5.33 13.67 11.9 13.67 6.574 0 11.9-6.12 11.9-13.67"/>
            <path fill="#34648C" d="M32.729 145.844c-1.059 0-2.08.214-3.054.574 5.088 1.879 8.845 8.206 8.845 14.54 0 6.333-3.757 11.645-8.845 13.198.975.297 1.995.47 3.054.47 6.573 0 11.9-6.119 11.9-13.669 0-7.55-5.327-15.113-11.9-15.113"/>
            <path fill="#CEE5ED" d="M19.166 169.89l2.135 19.321c.266 2.415 2.305 4.243 4.734 4.243h12.308c2.427 0 4.468-1.828 4.734-4.243l2.133-19.321c.118-1.052-.707-1.971-1.764-1.971H20.93c-1.057 0-1.88.919-1.764 1.97"/>
            <path fill="#AAC6CE" d="M20.93 170.806h22.516c.697 0 1.263.418 1.552.99l.212-1.907c.116-1.052-.707-1.97-1.764-1.97H20.93c-1.057 0-1.88.918-1.763 1.97l.21 1.907c.293-.572.857-.99 1.553-.99"/>
            <path fill="#AAC6CE" d="M43.446 167.92H35.64c1.057 0 1.88.918 1.764 1.97l-2.134 19.322c-.267 2.414-2.305 4.242-4.735 4.242h7.808c2.43 0 4.467-1.828 4.734-4.242l2.132-19.322c.118-1.052-.704-1.97-1.763-1.97"/>
            <path fill="#F2BF75" d="M142.056 304.178L141.25 309.762 145.494 315.2 156.266 309.925 157.431 304.816 144.025 302.79z"/>
            <path fill="#1E394C" d="M150.749 322.15l1.111-1.378c.204-.253.587-.259.797-.01l1.118 1.31c.452.53 1.116.83 1.812.817l25.02-.426c.477-.489.604-1.328.044-1.893-3.668-3.704-23.406-10.105-24.386-10.645-.981-.542-7.02 4.153-15.016-.163 0 0-1.297 6.268-1.485 10.33-.075 1.658 1.232 3.046 2.89 3.017l6.351-.108c.679-.012 1.318-.322 1.744-.851M96.139 209.816s-10.39 11.493 8.634 23.983c13.348 8.76 23.866 6.084 32.242 11.395 1.965 1.247 3.457 3.099 3.596 5.422l.426 53.727 1.014.503c5.04 2.505 10.947 2.57 16.042.176l7.577-61.302c.27-4.226-2.012-7.788-4.626-11.118-14.548-18.516-40.304-24.79-46.824-25.86-8.476-1.39-18.081 3.074-18.081 3.074"/>
            <path fill="#F2BF75" d="M100.685 304.172L99.799 309.745 103.971 315.241 114.811 310.112 116.047 305.022 102.672 302.811z"/>
            <path fill="#1E394C" d="M109.129 322.261l1.132-1.363c.205-.249.59-.249.796.002l1.098 1.322c.446.538 1.105.846 1.802.846l25.025-.086c.482-.48.62-1.318.067-1.89-3.615-3.754-23.262-10.426-24.237-10.98-.975-.552-7.076 4.057-15.012-.367 0 0-1.383 6.25-1.625 10.307-.1 1.657 1.19 3.065 2.849 3.059l6.351-.023c.678-.002 1.32-.303 1.754-.827M64.557 199.796s-12.589 14.04 5.614 29.898c12.768 11.126 24.227 6.368 32.27 13.153 1.886 1.592 3.19 3.754 3.002 6.215l-5.748 54.65.433.282c5.022 3.26 11.37 3.694 16.784 1.145l14.232-57.589c.892-4.401-.996-8.475-3.264-12.348-12.632-21.55-32.466-34.393-39.165-36.453-8.706-2.68-24.158 1.047-24.158 1.047"/>
            <path fill="#0F2A3F" d="M134.004 243.655c-.957-.408-1.932-.734-2.93-1.019-.53-2.567-1.792-5.054-3.2-7.438-6.25-10.677-14.292-19.236-21.625-25.37 4.561-.774 6.883-1.752 8.145-3.036 2.507.408 7.555 1.549 13.664 3.709 6.19 10.352 6.17 27.163 5.946 33.154"/>
            <path fill="#F3B50B" d="M98.45 125.496s-18.155-2.42-25.702 11.733c-7.544 14.159-18.811 69.652-8.96 71.34 4.362.747 15.996 3.678 28.884 2.732 17.723-1.296 21.576-2.928 22.852-6.3l11.292-51.716c.265-7.116-2.9-13.959-8.571-18.26-9.048-6.86-19.796-9.529-19.796-9.529"/>
            <path fill="#AAC6CE" d="M126.744 148.737s.236 31.145 10.02 33.032c9.787 1.889 35.84 1.298 35.84 1.298v9.91h-55.881l10.02-44.24z"/>
            <path fill="#EA9249" d="M113.213 134.608l2.203-11.016-14.279-10.881-2.734 12.984s4.502 19.83 14.81 8.913"/>
            <path fill="#1E394C" d="M131.427 102.599s-7.47 3.637-18.413-3.037c0 0-2.537 4.567-9.872 8.644 0 0-3.812-6.392-6.005-1.601-.664 1.45-.976 2.755-1.008 3.91-6.869-8.878-2.024-20.575 4.378-26.88 6.07-5.984 19.207-3.604 27.413-.303 8.712 3.509 10.313-2.596 10.313-2.596 11.008 15.517-6.806 21.863-6.806 21.863"/>
            <path fill="#F2BF75" d="M103.139 108.204s-3.81-6.392-6.003-1.604c-2.662 5.812.342 9.458 3.944 9.458 0 0 2.861 15.114 16.737 14.044 13.876-1.068 15.88-23.367 13.61-27.506 0 0-7.47 3.64-18.412-3.038 0 0-2.537 4.573-9.876 8.646"/>
            <path fill="#CEE5ED" d="M223.42 143.554h-57.925c-2.855 0-5.315 2.01-5.885 4.81l-7.712 37.822h70.188l7.22-35.418c.76-3.727-2.087-7.214-5.887-7.214"/>
            <path fill="#80A9B2" d="M221.86 186.19h-95.727c-1.578 0-2.86 1.28-2.86 2.861v.925c0 1.582 1.282 2.864 2.86 2.864h95.727c1.578 0 2.86-1.282 2.86-2.864v-.925c0-1.58-1.282-2.86-2.86-2.86"/>
            <path fill="#AAC6CE" d="M221.86 186.19h-70.729c1.578 0 2.857 1.281 2.857 2.86v.928c0 1.579-1.279 2.86-2.857 2.86h70.73c1.577 0 2.858-1.281 2.858-2.86v-.928c0-1.579-1.28-2.86-2.859-2.86"/>
            <path fill="#F3B50B" d="M129.22 184.162c-11.278-1.315-42.915-4.545-48.335-5.105-6.84-.71 8.015-28.314 9.666-37.753 1.65-9.437-5.54-9.791-5.54-9.791-4.06-.508-8.49 0-12.262 5.718-7.72 11.7-16.321 45.91-11.79 54.354.533.99 1.574 1.598 2.698 1.598h65.563v-9.021z"/>
            <path fill="#D29D0C" d="M129.22 184.162s-40.732-2.804-49.514-3.986c-6.814-.913 7.387-29.197 9.037-38.636 1.651-9.436-5.657-9.043-5.657-9.043-1.833-.226-4.476.03-6.362.597 2.727-1.793 5.584-1.916 8.29-1.585 0 0 7.187.358 5.537 9.795-1.651 9.439-14.383 36.455-10.08 37.517 5.293 1.306 37.47 4.028 48.749 5.34"/>
            <path fill="#F2BF75" d="M129.22 193.331h15.193c1.14 0 1.827-1.263 1.206-2.22-1.424-2.187-3.67-5.278-5.317-5.802-.982-.312-8.37-.037-11.082.25v7.772z"/>
            <path fill="#EA9249" d="M131.427 102.597s-1.246.593-3.44.857c-.185 1.03-.515 3.008-.694 4.883-.254 2.673 1.082 10.953.255 11.016-.829.063-2.546-.063-2.546-.063s-1.272 11.971-13.236 10.06c-.114-.016-.204-.029-.312-.047 1.813.652 3.906.988 6.362.799 13.878-1.068 15.88-23.367 13.611-27.505"/>
            <path fill="#67B8EF" d="M305.594 276.548s19.083-9.471 13.892-23.831c-5.19-14.362-8.398-14.971 1.527-23.07 9.921-8.095 24.274-28.413 6.105-29.942-18.166-1.528-17.25 22.609-32.364 25.971-15.114 3.36-23.359 66.608 10.84 50.872"/>
            <path fill="#34648C" d="M290.574 277.971c3.665 1.7 8.593 1.535 15.02-1.422 0 0 19.083-9.474 13.892-23.833-5.19-14.36-8.398-14.972 1.527-23.068 9.921-8.096 24.274-28.416 6.105-29.942-1.79-.15-3.388-.045-4.842.259 5.113 2.125 10.2 6.341 3.626 14.144-10.945 12.99-16.8 17.575-15.527 25.98 1.24 8.196.534 26.805-19.801 37.882"/>
            <path fill="#67B8EF" d="M273.229 276.09s-16.794-.612-15.878-12.681c.914-12.068 1.383-12.54-9.16-16.345-18.624-6.722-3.88-42.52 11.298-20.013 10.534 15.622 15.114 12.107 21.983 13.33 6.87 1.222 21.832 41.056-8.243 35.709"/>
            <path fill="#34648C" d="M281.472 240.38c-6.869-1.223-11.449 2.292-21.985-13.33-7.942-11.78-15.76-7.58-18.743.058 4.468-1.37 11.257-2.193 12.103 5.084 1.097 9.443 23.173 24.948 22.723 44.22.294.033.577.052.858.074 3.215-8.475 7.455-19.468 11.081-28.838-1.94-4.039-4.258-6.953-6.037-7.269"/>
            <path fill="#34648C" d="M277.12 275.555s-20.838-20.395-13.739-23.831c7.099-3.438 21.068 7.79 13.281-4.355-7.785-12.145-16.85-31.063-6.089-28.084 10.763 2.98 11.545 6.252 10.213-7.894-1.723-18.297 8.471-27.727 18.09-21.77 9.617 5.96-8.244 46.29-1.604 41.938 6.64-4.355 12.137-8.021 13.512-2.751 1.374 5.271-19.014 25.964-11.451 22.457 9.392-4.354 10.762 3.438 7.787 8.25-2.975 4.812-15.344 33.455-30 16.04"/>
            <path fill="#1E394C" d="M307.121 259.514c2.975-4.811 1.603-12.603-7.787-8.249-7.563 3.507 12.825-17.186 11.45-22.458-1.374-5.27-6.87-1.603-13.51 2.751-6.643 4.353 11.222-35.978 1.602-41.936-4.472-2.772-9.056-2.179-12.522 1.051 4.98 1.219 8.966 5.227 6.203 16.047-5.855 22.925-9.418 42.029 1.273 36.425 10.07-5.278-11.697 19.047-11.92 36.577 12.498 7.147 22.564-15.93 25.211-20.208"/>
            <path fill="#CEE5ED" d="M262.69 277.947l4.033 36.539c.507 4.566 4.364 8.026 8.956 8.026h23.278c4.59 0 8.448-3.46 8.951-8.026l4.034-36.539c.22-1.989-1.337-3.727-3.335-3.727h-42.58c-2 0-3.554 1.738-3.336 3.727"/>
            <path fill="#AAC6CE" d="M308.607 274.221h-14.764c1.998 0 3.555 1.738 3.336 3.727l-4.034 36.539c-.503 4.566-4.36 8.024-8.952 8.024h14.763c4.592 0 8.45-3.458 8.952-8.024l4.034-36.539c.22-1.989-1.338-3.727-3.335-3.727"/>
            <path fill="#3E8CCC" d="M263.34 193.213H13.762c-2.802 0-5.073 2.272-5.073 5.076v1.644c0 2.804 2.27 5.079 5.073 5.079h249.576c2.802 0 5.073-2.275 5.073-5.079v-1.644c0-2.804-2.27-5.076-5.073-5.076"/>
            <path fill="#2173AA" d="M263.34 193.213H13.762c-2.802 0-5.073 2.272-5.073 5.076v1.644c0 .54.108 1.05.263 1.539.653-2.048 2.547-3.54 4.81-3.54h249.576c2.263 0 4.159 1.492 4.81 3.54.157-.49.263-.999.263-1.539v-1.644c0-2.804-2.27-5.076-5.073-5.076"/>
            <path fill="#34648C" d="M92.647 322.689L84.306 322.689 26.273 205.069 34.616 205.069z"/>
            <path fill="#34648C" d="M.809 322.689L9.15 322.689 67.183 205.069 58.84 205.069zM272.316 322.689L263.975 322.689 205.943 205.069 214.286 205.069z"/>
            <path fill="#34648C" d="M180.479 322.689L188.82 322.689 246.852 205.069 238.509 205.069z"/>
            <path fill="#1A3651" d="M36.915 209.729L34.616 205.069 26.273 205.069 28.572 209.729zM64.883 209.729L67.182 205.069 58.839 205.069 56.54 209.729zM216.584 209.729L214.285 205.069 205.942 205.069 208.241 209.729zM244.553 209.729L246.852 205.069 238.509 205.069 236.21 209.729z"/>
        </g>
        <path stroke="#1EA0FB" stroke-linecap="square" stroke-width="2" d="M384.5 365L.5 365M575.5 371L276.5 371M79.5 381L33.5 381M222.5 381L109.5 381M415.5 381L235.5 381" transform="translate(1)"/>
    </g>
</svg>
